<svg width="65" height="62" viewBox="0 0 65 62" fill="none" xmlns="http://www.w3.org/2000/svg">
<path d="M16.25 22.8421C18.4049 22.8421 20.4715 21.9826 21.9952 20.4527C23.519 18.9228 24.375 16.8478 24.375 14.6842C24.375 12.5206 23.519 10.4456 21.9952 8.91571C20.4715 7.38581 18.4049 6.52632 16.25 6.52632C14.0951 6.52632 12.0285 7.38581 10.5048 8.91571C8.98102 10.4456 8.125 12.5206 8.125 14.6842C8.125 16.8478 8.98102 18.9228 10.5048 20.4527C12.0285 21.9826 14.0951 22.8421 16.25 22.8421ZM16.25 29.3684C14.3294 29.3684 12.4276 28.9886 10.6533 28.2507C8.87887 27.5127 7.26662 26.4311 5.90856 25.0675C4.55051 23.704 3.47324 22.0852 2.73826 20.3036C2.00329 18.522 1.625 16.6126 1.625 14.6842C1.625 12.7559 2.00329 10.8464 2.73826 9.06481C3.47324 7.28324 4.55051 5.66446 5.90856 4.30091C7.26662 2.93735 8.87887 1.85572 10.6533 1.11777C12.4276 0.379819 14.3294 -2.87348e-08 16.25 0C20.1288 5.80325e-08 23.8487 1.54708 26.5914 4.30091C29.3342 7.05473 30.875 10.7897 30.875 14.6842C30.875 18.5787 29.3342 22.3137 26.5914 25.0675C23.8487 27.8213 20.1288 29.3684 16.25 29.3684ZM50.375 35.8947C52.0989 35.8947 53.7522 35.2071 54.9712 33.9832C56.1902 32.7593 56.875 31.0993 56.875 29.3684C56.875 27.6375 56.1902 25.9775 54.9712 24.7536C53.7522 23.5297 52.0989 22.8421 50.375 22.8421C48.6511 22.8421 46.9978 23.5297 45.7788 24.7536C44.5598 25.9775 43.875 27.6375 43.875 29.3684C43.875 31.0993 44.5598 32.7593 45.7788 33.9832C46.9978 35.2071 48.6511 35.8947 50.375 35.8947ZM50.375 42.4211C46.9272 42.4211 43.6206 41.0459 41.1826 38.598C38.7446 36.1502 37.375 32.8302 37.375 29.3684C37.375 25.9066 38.7446 22.5867 41.1826 20.1388C43.6206 17.691 46.9272 16.3158 50.375 16.3158C53.8228 16.3158 57.1294 17.691 59.5674 20.1388C62.0054 22.5867 63.375 25.9066 63.375 29.3684C63.375 32.8302 62.0054 36.1502 59.5674 38.598C57.1294 41.0459 53.8228 42.4211 50.375 42.4211ZM58.5 62V60.3684C58.5 58.2048 57.644 56.1298 56.1202 54.5999C54.5965 53.07 52.5299 52.2105 50.375 52.2105C48.2201 52.2105 46.1535 53.07 44.6298 54.5999C43.106 56.1298 42.25 58.2048 42.25 60.3684V62H35.75V60.3684C35.75 58.4401 36.1283 56.5306 36.8633 54.749C37.5982 52.9674 38.6755 51.3487 40.0336 49.9851C41.3916 48.6216 43.0039 47.5399 44.7783 46.802C46.5526 46.064 48.4544 45.6842 50.375 45.6842C52.2956 45.6842 54.1974 46.064 55.9717 46.802C57.7461 47.5399 59.3584 48.6216 60.7164 49.9851C62.0745 51.3487 63.1518 52.9674 63.8867 54.749C64.6217 56.5306 65 58.4401 65 60.3684V62H58.5ZM26 62V48.9474C26 47.6618 25.7478 46.3888 25.2578 45.2011C24.7678 44.0134 24.0497 42.9342 23.1443 42.0252C22.2389 41.1161 21.1641 40.395 19.9812 39.9031C18.7982 39.4111 17.5304 39.1579 16.25 39.1579C14.9696 39.1579 13.7018 39.4111 12.5188 39.9031C11.3359 40.395 10.2611 41.1161 9.35571 42.0252C8.45034 42.9342 7.73216 44.0134 7.24218 45.2011C6.75219 46.3888 6.5 47.6618 6.5 48.9474V62H0V48.9474C0 44.6202 1.71205 40.4702 4.75951 37.4104C7.80698 34.3506 11.9402 32.6316 16.25 32.6316C20.5598 32.6316 24.693 34.3506 27.7405 37.4104C30.788 40.4702 32.5 44.6202 32.5 48.9474V62H26Z" fill="#80B064"/>
</svg>
