<svg width="65" height="65" viewBox="0 0 65 65" fill="none" xmlns="http://www.w3.org/2000/svg">
<path d="M22.75 0V6.5H42.25V0H48.75V6.5H61.75C62.612 6.5 63.4386 6.84241 64.0481 7.4519C64.6576 8.0614 65 8.88805 65 9.75V61.75C65 62.612 64.6576 63.4386 64.0481 64.0481C63.4386 64.6576 62.612 65 61.75 65H3.25C2.38805 65 1.5614 64.6576 0.951903 64.0481C0.34241 63.4386 0 62.612 0 61.75V9.75C0 8.88805 0.34241 8.0614 0.951903 7.4519C1.5614 6.84241 2.38805 6.5 3.25 6.5H16.25V0H22.75ZM58.5 32.5H6.5V58.5H58.5V32.5ZM29.25 39V52H13V39H29.25ZM16.25 13H6.5V26H58.5V13H48.75V19.5H42.25V13H22.75V19.5H16.25V13Z" fill="#80B064"/>
</svg>
