<svg width="66" height="64" viewBox="0 0 66 64" fill="none" xmlns="http://www.w3.org/2000/svg">
<path d="M39.7226 13.4695C39.7226 15.2564 39.0141 16.9701 37.753 18.2336C36.4919 19.4971 34.7815 20.2069 32.998 20.2069C31.2146 20.2069 29.5042 19.4971 28.2431 18.2336C26.982 16.9701 26.2735 15.2564 26.2735 13.4695C26.2735 11.6827 26.982 9.96899 28.2431 8.70549C29.5042 7.44198 31.2146 6.73215 32.998 6.73215C34.7815 6.73215 36.4919 7.44198 37.753 8.70549C39.0141 9.96899 39.7226 11.6827 39.7226 13.4695ZM44.6483 20.2069C45.8275 18.1584 46.4479 15.8351 46.4471 13.4702C46.4463 11.1054 45.8244 8.78249 44.6438 6.73477C43.4632 4.68706 41.7655 2.9867 39.7213 1.80452C37.6771 0.622349 35.3583 0 32.998 0C30.6377 0 28.319 0.622349 26.2748 1.80452C24.2306 2.9867 22.5329 4.68706 21.3523 6.73477C20.1717 8.78249 19.5497 11.1054 19.549 13.4702C19.5482 15.8351 20.1685 18.1584 21.3478 20.2069H9.68405C8.89014 20.2068 8.12178 20.4881 7.51501 21.001C6.90825 21.514 6.50223 22.2256 6.36885 23.0097L0.0477881 60.0654C-0.0344321 60.5487 -0.010339 61.0443 0.118385 61.5173C0.247109 61.9904 0.477361 62.4296 0.793058 62.8043C1.10876 63.179 1.50229 63.4801 1.94617 63.6866C2.39005 63.8932 2.87358 64.0001 3.36299 64H62.6364C63.1262 64.0002 63.6101 63.8932 64.0542 63.6865C64.4984 63.4797 64.8921 63.1783 65.2079 62.8032C65.5236 62.4282 65.7538 61.9885 65.8823 61.515C66.0107 61.0415 66.0344 60.5456 65.9516 60.062L59.6306 23.0063C59.4964 22.2222 59.0896 21.511 58.4822 20.9987C57.8748 20.4863 57.106 20.2058 56.312 20.2069H44.6483ZM32.998 26.9443H53.4776L58.6488 57.2626H7.35064L12.5252 26.9443H32.998Z" fill="#80B064"/>
</svg>
