<svg width="29" height="29" viewBox="0 0 29 29" fill="none" xmlns="http://www.w3.org/2000/svg">
<path d="M15.9906 0C17.6218 0.00434989 18.4497 0.0130497 19.1645 0.0333492L19.4458 0.0434989C19.7706 0.0550986 20.091 0.0695982 20.4781 0.0869978C22.0209 0.159496 23.0735 0.40309 23.9971 0.761232C24.9541 1.12952 25.7602 1.62831 26.5664 2.43304C27.304 3.15764 27.8745 4.03449 28.2381 5.00238C28.5963 5.92601 28.8399 6.97868 28.9124 8.52289C28.9298 8.90858 28.9443 9.22903 28.9559 9.55527L28.9646 9.83656C28.9863 10.5499 28.995 11.3779 28.9979 13.0091L28.9994 14.0908V15.9902C29.0029 17.0478 28.9918 18.1054 28.966 19.1627L28.9573 19.444C28.9457 19.7703 28.9312 20.0907 28.9138 20.4764C28.8413 22.0206 28.5948 23.0718 28.2381 23.9969C27.8745 24.9648 27.304 25.8417 26.5664 26.5663C25.8418 27.3038 24.965 27.8744 23.9971 28.2381C23.0735 28.5962 22.0209 28.8398 20.4781 28.9123L19.4458 28.9558L19.1645 28.9645C18.4497 28.9848 17.6218 28.9949 15.9906 28.9978L14.909 28.9993H13.011C11.9529 29.003 10.8949 28.9919 9.83713 28.9659L9.55584 28.9572C9.21165 28.9442 8.86752 28.9292 8.52349 28.9123C6.98077 28.8398 5.92813 28.5962 5.00307 28.2381C4.03572 27.8742 3.15941 27.3037 2.43525 26.5663C1.69716 25.8418 1.12613 24.9649 0.762036 23.9969C0.403905 23.0733 0.160317 22.0206 0.0878202 20.4764L0.0443225 19.444L0.037073 19.1627C0.0103451 18.1054 -0.00173889 17.0478 0.000824714 15.9902V13.0091C-0.00318853 11.9515 0.0074454 10.8939 0.0327232 9.83656L0.0428727 9.55527C0.0544721 9.22903 0.0689713 8.90858 0.0863704 8.52289C0.158867 6.97868 0.402454 5.92746 0.760586 5.00238C1.12552 4.03409 1.69756 3.15721 2.4367 2.43304C3.16044 1.6958 4.03624 1.12528 5.00307 0.761232C5.92813 0.40309 6.97932 0.159496 8.52349 0.0869978C8.90917 0.0695982 9.23106 0.0550986 9.55584 0.0434989L9.83713 0.0347991C10.8944 0.00903721 11.952 -0.00208026 13.0096 0.00144986L15.9906 0ZM14.5001 7.24982C12.5774 7.24982 10.7334 8.01364 9.37383 9.37325C8.01426 10.7329 7.25046 12.5769 7.25046 14.4996C7.25046 16.4224 8.01426 18.2664 9.37383 19.626C10.7334 20.9857 12.5774 21.7495 14.5001 21.7495C16.4228 21.7495 18.2668 20.9857 19.6264 19.626C20.9859 18.2664 21.7497 16.4224 21.7497 14.4996C21.7497 12.5769 20.9859 10.7329 19.6264 9.37325C18.2668 8.01364 16.4228 7.24982 14.5001 7.24982ZM14.5001 10.1498C15.0713 10.1497 15.637 10.2621 16.1647 10.4806C16.6925 10.6991 17.1721 11.0194 17.5761 11.4233C17.98 11.8272 18.3005 12.3066 18.5192 12.8343C18.7379 13.3621 18.8505 13.9277 18.8506 14.4989C18.8507 15.0702 18.7383 15.6358 18.5198 16.1636C18.3013 16.6914 17.9809 17.171 17.5771 17.575C17.1732 17.979 16.6938 18.2995 16.1661 18.5182C15.6384 18.7368 15.0728 18.8494 14.5015 18.8495C13.3479 18.8495 12.2415 18.3913 11.4258 17.5755C10.61 16.7597 10.1518 15.6533 10.1518 14.4996C10.1518 13.346 10.61 12.2396 11.4258 11.4238C12.2415 10.608 13.3479 10.1498 14.5015 10.1498M22.1137 5.07488C21.633 5.07488 21.172 5.26583 20.8321 5.60573C20.4922 5.94563 20.3012 6.40664 20.3012 6.88733C20.3012 7.36803 20.4922 7.82903 20.8321 8.16893C21.172 8.50883 21.633 8.69979 22.1137 8.69979C22.5943 8.69979 23.0553 8.50883 23.3952 8.16893C23.7351 7.82903 23.9261 7.36803 23.9261 6.88733C23.9261 6.40664 23.7351 5.94563 23.3952 5.60573C23.0553 5.26583 22.5943 5.07488 22.1137 5.07488Z" fill="#FCFCFC"/>
</svg>
