<svg width="29" height="28" viewBox="0 0 29 28" fill="none" xmlns="http://www.w3.org/2000/svg">
<path d="M24.708 23.8607H20.4144V17.3631C20.4144 15.8138 20.3822 13.8196 18.1749 13.8196C15.9371 13.8196 15.5956 15.5058 15.5956 17.2496V23.8607H11.3003V10.5H15.4248V12.32H15.4812C16.0579 11.2716 17.4596 10.1624 19.5541 10.1624C23.9041 10.1624 24.7096 12.9282 24.7096 16.5278L24.708 23.8607ZM6.45089 8.67222C6.12312 8.67263 5.79848 8.61057 5.4956 8.48961C5.19272 8.36864 4.91754 8.19115 4.68585 7.9673C4.45415 7.74345 4.2705 7.47765 4.14541 7.18513C4.02032 6.89261 3.95625 6.57914 3.95689 6.26267C3.95721 5.78641 4.10379 5.32094 4.3781 4.92512C4.65241 4.52929 5.04212 4.2209 5.49796 4.03893C5.95381 3.85695 6.4553 3.80958 6.93902 3.9028C7.42275 3.99601 7.86699 4.22563 8.21555 4.56261C8.56412 4.89959 8.80136 5.3288 8.89728 5.79597C8.9932 6.26314 8.94349 6.74727 8.75443 7.18716C8.56537 7.62705 8.24545 8.00293 7.83514 8.26727C7.42483 8.5316 6.94254 8.67253 6.44928 8.67222M8.60172 23.8607H4.29683V10.5H8.60333L8.60172 23.8607ZM26.8572 0H2.14278C0.957 0 0 0.902222 0 2.01756V25.9824C0 27.0978 0.957 28 2.13956 28H26.8524C28.0333 28 29 27.0978 29 25.9824V2.01756C29 0.903778 28.0333 0 26.8508 0H26.8572Z" fill="#80B064"/>
</svg>
