<svg width="20" height="20" viewBox="0 0 20 20" fill="none" xmlns="http://www.w3.org/2000/svg">
<path d="M16.4753 13.5978L15.0367 12.157L16.4753 10.7183C17.4224 9.76284 17.9525 8.47108 17.9496 7.1257C17.9466 5.78032 17.4109 4.49089 16.4596 3.53956C15.5083 2.58823 14.219 2.05248 12.8736 2.04953C11.5283 2.04659 10.2366 2.57669 9.2812 3.52384L7.84156 4.96355L6.40294 3.52486L7.84156 2.08616C9.17724 0.750416 10.9888 0 12.8777 0C14.7667 0 16.5783 0.750416 17.9139 2.08616C19.2496 3.42191 20 5.23358 20 7.12261C20 9.01164 19.2496 10.8233 17.9139 12.1591L16.4753 13.5978ZM13.5971 16.4751L12.1584 17.9138C10.8228 19.2496 9.01119 20 7.12225 20C5.23331 20 3.42174 19.2496 2.08606 17.9138C0.750378 16.5781 1.99032e-08 14.7664 0 12.8774C-1.99032e-08 10.9884 0.750378 9.17669 2.08606 7.84094L3.5257 6.40225L4.96432 7.84298L3.5257 9.28167C2.59158 10.2397 2.07249 11.5272 2.08087 12.8652C2.08926 14.2033 2.62444 15.4841 3.57049 16.4304C4.51653 17.3766 5.79726 17.912 7.13524 17.9205C8.47322 17.9291 9.76071 17.4102 10.7188 16.4762L12.1584 15.0375L13.5971 16.4751ZM12.8777 5.6829L14.3174 7.12261L7.12225 14.3161L5.68363 12.8774L12.8777 5.6829Z" fill="#80B064"/>
</svg>
