<svg width="48" height="63" viewBox="0 0 48 63" fill="none" xmlns="http://www.w3.org/2000/svg">
<path d="M47.1275 47.173C37.6883 61.6608 8.66451 63.8479 5.28265 61.0769C5.19266 60.9003 5.11208 60.7098 5.03955 60.5026C5.30145 60.8613 5.57275 61.1617 5.85077 61.3994C10.0022 62.6118 35.98 49.0361 39.3108 31.9037C39.1456 26.2198 31.5962 16.4565 23.7781 9.22227C25.8397 7.13808 27.9202 5.76716 29.9388 5.39453C36.6864 5.5878 50.696 37.4972 47.1275 47.173Z" fill="#EDE937"/>
<path d="M5.03877 60.5011C-1.41739 51.6499 -2.87328 7.37016 7.92235 0.183233C10.763 -0.947153 17.3615 3.28519 23.7787 9.22216C12.6862 20.4343 2.15654 52.2936 5.03877 60.5011Z" fill="#EDE937"/>
<path d="M23.7784 9.22217C12.686 20.4343 2.15626 52.2937 5.0385 60.5011C5.0385 60.5011 5.03895 60.5016 5.03985 60.5025C5.30175 60.8612 5.57305 61.1616 5.85106 61.3993C10.0025 62.6117 35.9803 49.036 39.3111 31.9036C39.1459 26.2197 31.5965 16.4564 23.7784 9.22217ZM32.5782 33.6249C31.3896 33.6249 30.4266 32.6266 30.4266 31.3961C30.4266 30.1656 31.3896 29.1673 32.5782 29.1673C33.7669 29.1673 34.7312 30.1656 34.7312 31.3961C34.7312 32.6266 33.7682 33.6249 32.5782 33.6249Z" fill="#BFD749"/>
<path d="M34.7318 31.3963C34.7318 32.6268 33.7688 33.6251 32.5788 33.6251C31.3889 33.6251 30.4272 32.6268 30.4272 31.3963C30.4272 30.1658 31.3902 29.1675 32.5788 29.1675C33.7675 29.1675 34.7318 30.1658 34.7318 31.3963Z" fill="#004155"/>
</svg>
