<svg width="907" height="258" viewBox="0 0 907 258" fill="none" xmlns="http://www.w3.org/2000/svg">
<path d="M128.871 7.73232C145.228 7.73232 161.092 10.9348 176.022 17.2494C190.446 23.3515 203.4 32.0857 214.528 43.2137C225.656 54.3418 234.391 67.2965 240.493 81.7204C246.807 96.6501 250.01 112.514 250.01 128.871C250.01 145.228 246.807 161.092 240.493 176.022C234.391 190.446 225.656 203.4 214.528 214.528C203.4 225.656 190.446 234.391 176.022 240.493C161.092 246.807 145.228 250.01 128.871 250.01C112.514 250.01 96.65 246.807 81.7203 240.493C67.2964 234.391 54.3417 225.656 43.2137 214.528C32.0857 203.4 23.3514 190.446 17.2494 176.022C10.9347 161.092 7.73226 145.228 7.73226 128.871C7.73226 112.514 10.9347 96.6501 17.2494 81.7204C23.3514 67.2965 32.0857 54.3418 43.2137 43.2137C54.3417 32.0857 67.2964 23.3515 81.7203 17.2494C96.65 10.9348 112.514 7.73232 128.871 7.73232ZM128.871 6.10352e-05C57.6988 6.10352e-05 0 57.6988 0 128.871C0 200.043 57.6988 257.742 128.871 257.742C200.043 257.742 257.742 200.043 257.742 128.871C257.742 57.6988 200.043 6.10352e-05 128.871 6.10352e-05Z" fill="#EDE937"/>
<path d="M193.623 172.123C167.375 211.04 86.6661 216.915 77.2619 209.471C77.0117 208.997 76.7876 208.485 76.5859 207.929C77.3142 208.892 78.0686 209.699 78.8417 210.338C90.386 213.594 162.624 177.128 171.887 131.108C171.427 115.84 150.434 89.6144 128.694 70.1823C134.427 64.5839 140.212 60.9014 145.825 59.9005C164.589 60.4196 203.546 146.133 193.623 172.123Z" fill="#EDE937"/>
<path d="M76.582 207.925C58.6289 184.149 54.5804 65.2076 84.6006 45.9025C92.4997 42.8661 110.849 54.2348 128.694 70.1823C97.8479 100.3 68.5672 185.879 76.582 207.925Z" fill="#EDE937"/>
<path d="M128.694 70.1824C97.848 100.3 68.5673 185.879 76.5821 207.925C76.5821 207.925 76.5834 207.926 76.5859 207.929C77.3142 208.892 78.0686 209.699 78.8417 210.338C90.3859 213.595 162.624 177.128 171.886 131.108C171.427 115.84 150.434 89.6145 128.694 70.1824ZM153.164 135.732C149.859 135.732 147.181 133.05 147.181 129.745C147.181 126.44 149.859 123.758 153.164 123.758C156.469 123.758 159.151 126.44 159.151 129.745C159.151 133.05 156.473 135.732 153.164 135.732Z" fill="#BFD749"/>
<path d="M159.151 129.745C159.151 133.05 156.473 135.732 153.164 135.732C149.855 135.732 147.181 133.05 147.181 129.745C147.181 126.439 149.859 123.758 153.164 123.758C156.469 123.758 159.151 126.439 159.151 129.745Z" fill="#004155"/>
<path d="M396.135 108.312L382.29 72.1074C381.293 69.6374 380.296 66.5174 379.3 62.7474C378.823 64.6107 378.325 66.3441 377.805 67.9474C377.328 69.5507 376.851 70.9807 376.375 72.2374L362.595 108.312H396.135ZM423.5 143.087H412.84C411.626 143.087 410.63 142.784 409.85 142.177C409.07 141.571 408.506 140.791 408.16 139.837L399.905 118.192H358.76L350.505 139.837C350.201 140.661 349.638 141.419 348.815 142.112C347.991 142.762 346.995 143.087 345.825 143.087H335.165L372.345 49.7474H386.32L423.5 143.087ZM449.063 60.9924V92.2574H486.503V103.502H449.063V143.087H435.153V49.7474H493.003V60.9924H449.063ZM522.569 60.9924V92.2574H560.009V103.502H522.569V143.087H508.659V49.7474H566.509V60.9924H522.569ZM624.269 108.312L610.424 72.1074C609.428 69.6374 608.431 66.5174 607.434 62.7474C606.958 64.6107 606.459 66.3441 605.939 67.9474C605.463 69.5507 604.986 70.9807 604.509 72.2374L590.729 108.312H624.269ZM651.634 143.087H640.974C639.761 143.087 638.764 142.784 637.984 142.177C637.204 141.571 636.641 140.791 636.294 139.837L628.039 118.192H586.894L578.639 139.837C578.336 140.661 577.773 141.419 576.949 142.112C576.126 142.762 575.129 143.087 573.959 143.087H563.299L600.479 49.7474H614.454L651.634 143.087ZM716.718 131.452V143.087H663.288V49.7474H677.133V131.452H716.718ZM811.637 96.4174C811.637 103.394 810.51 109.742 808.257 115.462C806.047 121.182 802.905 126.101 798.832 130.217C794.759 134.291 789.884 137.454 784.207 139.707C778.53 141.961 772.225 143.087 765.292 143.087H730.192V49.7474H765.292C772.225 49.7474 778.53 50.8741 784.207 53.1274C789.884 55.3807 794.759 58.5657 798.832 62.6824C802.905 66.7557 806.047 71.6741 808.257 77.4374C810.51 83.1574 811.637 89.4841 811.637 96.4174ZM797.467 96.4174C797.467 90.8707 796.709 85.9091 795.192 81.5324C793.675 77.1124 791.509 73.3857 788.692 70.3524C785.919 67.2757 782.539 64.9357 778.552 63.3324C774.609 61.7291 770.189 60.9274 765.292 60.9274H744.102V131.907H765.292C770.189 131.907 774.609 131.106 778.552 129.502C782.539 127.899 785.919 125.581 788.692 122.547C791.509 119.471 793.675 115.744 795.192 111.367C796.709 106.991 797.467 102.007 797.467 96.4174ZM877.384 64.9574C876.95 65.6941 876.495 66.2357 876.019 66.5824C875.542 66.9291 874.935 67.1024 874.199 67.1024C873.419 67.1024 872.53 66.7557 871.534 66.0624C870.537 65.3257 869.28 64.5241 867.764 63.6574C866.29 62.7474 864.514 61.9457 862.434 61.2524C860.354 60.5157 857.862 60.1474 854.959 60.1474C852.229 60.1474 849.824 60.5157 847.744 61.2524C845.707 61.9457 843.995 62.9207 842.609 64.1774C841.222 65.3907 840.16 66.8424 839.424 68.5324C838.73 70.1791 838.384 71.9774 838.384 73.9274C838.384 76.4407 839.012 78.5207 840.269 80.1674C841.569 81.8141 843.259 83.2224 845.339 84.3924C847.419 85.5624 849.78 86.5807 852.424 87.4474C855.067 88.3141 857.775 89.2241 860.549 90.1774C863.322 91.0874 866.03 92.1491 868.674 93.3624C871.317 94.5757 873.679 96.1141 875.759 97.9774C877.839 99.7974 879.507 102.051 880.764 104.737C882.064 107.381 882.714 110.631 882.714 114.487C882.714 118.604 881.999 122.461 880.569 126.057C879.182 129.654 877.145 132.796 874.459 135.482C871.772 138.169 868.457 140.292 864.514 141.852C860.614 143.369 856.172 144.127 851.189 144.127C848.199 144.127 845.295 143.824 842.479 143.217C839.662 142.654 836.997 141.852 834.484 140.812C831.97 139.729 829.609 138.451 827.399 136.977C825.232 135.461 823.282 133.771 821.549 131.907L825.514 125.277C825.904 124.757 826.359 124.324 826.879 123.977C827.442 123.631 828.07 123.457 828.764 123.457C829.674 123.457 830.714 123.934 831.884 124.887C833.097 125.841 834.57 126.902 836.304 128.072C838.08 129.199 840.182 130.239 842.609 131.192C845.079 132.146 848.069 132.622 851.579 132.622C854.439 132.622 856.995 132.254 859.249 131.517C861.502 130.737 863.387 129.654 864.904 128.267C866.464 126.837 867.655 125.126 868.479 123.132C869.302 121.139 869.714 118.929 869.714 116.502C869.714 113.772 869.085 111.541 867.829 109.807C866.572 108.074 864.904 106.622 862.824 105.452C860.744 104.282 858.382 103.286 855.739 102.462C853.095 101.639 850.387 100.794 847.614 99.9274C844.84 99.0174 842.132 97.9774 839.489 96.8074C836.845 95.6374 834.484 94.1207 832.404 92.2574C830.324 90.3507 828.655 87.9891 827.399 85.1724C826.142 82.3124 825.514 78.8024 825.514 74.6424C825.514 71.3057 826.164 68.0774 827.464 64.9574C828.764 61.8374 830.649 59.0857 833.119 56.7024C835.632 54.2757 838.709 52.3474 842.349 50.9174C845.989 49.4441 850.149 48.7074 854.829 48.7074C860.072 48.7074 864.882 49.5524 869.259 51.2424C873.679 52.8891 877.514 55.2724 880.764 58.3924L877.384 64.9574Z" fill="white"/>
<path d="M334.708 227.894H328.888V184.904H334.708V227.894ZM380.534 184.904V227.894H377.624C377.164 227.894 376.774 227.814 376.454 227.654C376.154 227.494 375.854 227.224 375.554 226.844L350.684 194.444C350.724 194.944 350.754 195.434 350.774 195.914C350.794 196.394 350.804 196.844 350.804 197.264V227.894H345.704V184.904H348.704C348.964 184.904 349.184 184.924 349.364 184.964C349.544 184.984 349.704 185.034 349.844 185.114C349.984 185.174 350.124 185.274 350.264 185.414C350.404 185.534 350.554 185.694 350.714 185.894L375.584 218.264C375.544 217.744 375.504 217.244 375.464 216.764C375.444 216.264 375.434 215.794 375.434 215.354V184.904H380.534ZM428.785 206.414C428.785 209.634 428.275 212.564 427.255 215.204C426.235 217.844 424.795 220.104 422.935 221.984C421.075 223.864 418.835 225.324 416.215 226.364C413.615 227.384 410.735 227.894 407.575 227.894H391.525V184.904H407.575C410.735 184.904 413.615 185.424 416.215 186.464C418.835 187.484 421.075 188.944 422.935 190.844C424.795 192.724 426.235 194.984 427.255 197.624C428.275 200.264 428.785 203.194 428.785 206.414ZM422.815 206.414C422.815 203.774 422.455 201.414 421.735 199.334C421.015 197.254 419.995 195.494 418.675 194.054C417.355 192.614 415.755 191.514 413.875 190.754C411.995 189.994 409.895 189.614 407.575 189.614H397.345V223.184H407.575C409.895 223.184 411.995 222.804 413.875 222.044C415.755 221.284 417.355 220.194 418.675 218.774C419.995 217.334 421.015 215.574 421.735 213.494C422.455 211.414 422.815 209.054 422.815 206.414ZM459.159 191.624C458.979 191.924 458.779 192.154 458.559 192.314C458.359 192.454 458.109 192.524 457.809 192.524C457.469 192.524 457.069 192.354 456.609 192.014C456.149 191.674 455.569 191.304 454.869 190.904C454.189 190.484 453.359 190.104 452.379 189.764C451.419 189.424 450.249 189.254 448.869 189.254C447.569 189.254 446.419 189.434 445.419 189.794C444.439 190.134 443.609 190.604 442.929 191.204C442.269 191.804 441.769 192.514 441.429 193.334C441.089 194.134 440.919 195.004 440.919 195.944C440.919 197.144 441.209 198.144 441.789 198.944C442.389 199.724 443.169 200.394 444.129 200.954C445.109 201.514 446.209 202.004 447.429 202.424C448.669 202.824 449.929 203.244 451.209 203.684C452.509 204.124 453.769 204.624 454.989 205.184C456.229 205.724 457.329 206.414 458.289 207.254C459.269 208.094 460.049 209.124 460.629 210.344C461.229 211.564 461.529 213.064 461.529 214.844C461.529 216.724 461.209 218.494 460.569 220.154C459.929 221.794 458.989 223.224 457.749 224.444C456.529 225.664 455.019 226.624 453.219 227.324C451.439 228.024 449.409 228.374 447.129 228.374C444.329 228.374 441.789 227.874 439.509 226.874C437.229 225.854 435.279 224.484 433.659 222.764L435.339 220.004C435.499 219.784 435.689 219.604 435.909 219.464C436.149 219.304 436.409 219.224 436.689 219.224C436.949 219.224 437.239 219.334 437.559 219.554C437.899 219.754 438.279 220.014 438.699 220.334C439.119 220.654 439.599 221.004 440.139 221.384C440.679 221.764 441.289 222.114 441.969 222.434C442.669 222.754 443.459 223.024 444.339 223.244C445.219 223.444 446.209 223.544 447.309 223.544C448.689 223.544 449.919 223.354 450.999 222.974C452.079 222.594 452.989 222.064 453.729 221.384C454.489 220.684 455.069 219.854 455.469 218.894C455.869 217.934 456.069 216.864 456.069 215.684C456.069 214.384 455.769 213.324 455.169 212.504C454.589 211.664 453.819 210.964 452.859 210.404C451.899 209.844 450.799 209.374 449.559 208.994C448.319 208.594 447.059 208.194 445.779 207.794C444.499 207.374 443.239 206.894 441.999 206.354C440.759 205.814 439.659 205.114 438.699 204.254C437.739 203.394 436.959 202.324 436.359 201.044C435.779 199.744 435.489 198.144 435.489 196.244C435.489 194.724 435.779 193.254 436.359 191.834C436.959 190.414 437.819 189.154 438.939 188.054C440.079 186.954 441.469 186.074 443.109 185.414C444.769 184.754 446.669 184.424 448.809 184.424C451.209 184.424 453.389 184.804 455.349 185.564C457.329 186.324 459.069 187.424 460.569 188.864L459.159 191.624ZM491.816 211.934L485.066 194.444C484.866 193.924 484.656 193.324 484.436 192.644C484.216 191.944 484.006 191.204 483.806 190.424C483.386 192.044 482.956 193.394 482.516 194.474L475.766 211.934H491.816ZM503.936 227.894H499.436C498.916 227.894 498.496 227.764 498.176 227.504C497.856 227.244 497.616 226.914 497.456 226.514L493.436 216.134H474.146L470.126 226.514C470.006 226.874 469.776 227.194 469.436 227.474C469.096 227.754 468.676 227.894 468.176 227.894H463.676L480.866 184.904H486.746L503.936 227.894ZM554.321 184.904V227.894H549.221V196.304C549.221 195.884 549.231 195.434 549.251 194.954C549.291 194.474 549.331 193.984 549.371 193.484L534.611 220.364C534.151 221.264 533.451 221.714 532.511 221.714H531.671C530.731 221.714 530.031 221.264 529.571 220.364L514.511 193.364C514.631 194.424 514.691 195.404 514.691 196.304V227.894H509.591V184.904H513.881C514.401 184.904 514.801 184.954 515.081 185.054C515.361 185.154 515.631 185.434 515.891 185.894L530.741 212.354C530.981 212.834 531.211 213.334 531.431 213.854C531.671 214.374 531.891 214.904 532.091 215.444C532.291 214.904 532.501 214.374 532.721 213.854C532.941 213.314 533.181 212.804 533.441 212.324L548.021 185.894C548.261 185.434 548.521 185.154 548.801 185.054C549.101 184.954 549.511 184.904 550.031 184.904H554.321ZM589.704 223.004V227.894H565.314V184.904H571.104V223.004H589.704ZM601.954 227.894H596.134V184.904H601.954V227.894ZM647.78 184.904V227.894H644.87C644.41 227.894 644.02 227.814 643.7 227.654C643.4 227.494 643.1 227.224 642.8 226.844L617.93 194.444C617.97 194.944 618 195.434 618.02 195.914C618.04 196.394 618.05 196.844 618.05 197.264V227.894H612.95V184.904H615.95C616.21 184.904 616.43 184.924 616.61 184.964C616.79 184.984 616.95 185.034 617.09 185.114C617.23 185.174 617.37 185.274 617.51 185.414C617.65 185.534 617.8 185.694 617.96 185.894L642.83 218.264C642.79 217.744 642.75 217.244 642.71 216.764C642.69 216.264 642.68 215.794 642.68 215.354V184.904H647.78ZM693.691 207.224V223.724C691.531 225.284 689.221 226.454 686.761 227.234C684.321 227.994 681.641 228.374 678.721 228.374C675.261 228.374 672.141 227.844 669.361 226.784C666.581 225.704 664.201 224.204 662.221 222.284C660.261 220.344 658.751 218.024 657.691 215.324C656.631 212.624 656.101 209.654 656.101 206.414C656.101 203.134 656.611 200.144 657.631 197.444C658.671 194.744 660.141 192.434 662.041 190.514C663.941 188.574 666.251 187.074 668.971 186.014C671.691 184.954 674.731 184.424 678.091 184.424C679.791 184.424 681.371 184.554 682.831 184.814C684.291 185.054 685.641 185.414 686.881 185.894C688.121 186.354 689.271 186.924 690.331 187.604C691.391 188.264 692.381 189.014 693.301 189.854L691.651 192.494C691.391 192.894 691.051 193.154 690.631 193.274C690.231 193.374 689.781 193.274 689.281 192.974C688.801 192.694 688.251 192.354 687.631 191.954C687.011 191.554 686.251 191.174 685.351 190.814C684.471 190.434 683.421 190.114 682.201 189.854C681.001 189.594 679.571 189.464 677.911 189.464C675.491 189.464 673.301 189.864 671.341 190.664C669.381 191.444 667.711 192.574 666.331 194.054C664.951 195.514 663.891 197.294 663.151 199.394C662.411 201.474 662.041 203.814 662.041 206.414C662.041 209.114 662.421 211.534 663.181 213.674C663.961 215.794 665.061 217.604 666.481 219.104C667.921 220.584 669.661 221.714 671.701 222.494C673.741 223.274 676.031 223.664 678.571 223.664C680.571 223.664 682.341 223.444 683.881 223.004C685.441 222.544 686.961 221.914 688.441 221.114V211.664H681.751C681.371 211.664 681.061 211.554 680.821 211.334C680.601 211.114 680.491 210.844 680.491 210.524V207.224H693.691ZM729.119 223.154L729.089 227.894H702.599V184.904H729.089V189.644H708.419V203.924H725.159V208.484H708.419V223.154H729.119ZM772.058 184.904V227.894H769.148C768.688 227.894 768.298 227.814 767.978 227.654C767.678 227.494 767.378 227.224 767.078 226.844L742.208 194.444C742.248 194.944 742.278 195.434 742.298 195.914C742.318 196.394 742.328 196.844 742.328 197.264V227.894H737.228V184.904H740.228C740.488 184.904 740.708 184.924 740.888 184.964C741.068 184.984 741.228 185.034 741.368 185.114C741.508 185.174 741.648 185.274 741.788 185.414C741.928 185.534 742.078 185.694 742.238 185.894L767.108 218.264C767.068 217.744 767.028 217.244 766.988 216.764C766.968 216.264 766.958 215.794 766.958 215.354V184.904H772.058Z" fill="white"/>
</svg>
