<svg width="398" height="389" viewBox="0 0 398 389" fill="none" xmlns="http://www.w3.org/2000/svg">
<path d="M200.5 7.27137C215.794 7.27137 230.628 10.2829 244.588 16.2212C258.075 21.9595 270.188 30.1732 280.593 40.6379C290.999 51.1026 299.165 63.2852 304.871 76.8493C310.776 90.8891 313.77 105.808 313.77 121.19C313.77 136.572 310.776 151.49 304.871 165.53C299.165 179.094 290.999 191.277 280.593 201.741C270.188 212.206 258.075 220.42 244.588 226.158C230.628 232.096 215.794 235.108 200.5 235.108C185.206 235.108 170.372 232.096 156.412 226.158C142.925 220.42 130.812 212.206 120.407 201.741C110.001 191.277 101.835 179.094 96.1289 165.53C90.2244 151.49 87.23 136.572 87.23 121.19C87.23 105.808 90.2244 90.8891 96.1289 76.8493C101.835 63.2852 110.001 51.1026 120.407 40.6379C130.812 30.1732 142.925 21.9595 156.412 16.2212C170.372 10.2829 185.206 7.27137 200.5 7.27137ZM200.5 0C133.951 0 80 54.2596 80 121.19C80 188.12 133.951 242.379 200.5 242.379C267.049 242.379 321 188.12 321 121.19C321 54.2596 267.049 0 200.5 0Z" fill="#EDE937"/>
<path d="M261.038 161.625C236.531 198.168 161.177 203.684 152.396 196.695C152.163 196.249 151.953 195.769 151.765 195.246C152.445 196.151 153.149 196.909 153.871 197.508C164.65 200.566 232.096 166.324 240.744 123.111C240.315 108.775 220.714 84.1486 200.416 65.9018C205.769 60.6448 211.17 57.1869 216.411 56.2471C233.93 56.7345 270.303 137.22 261.038 161.625Z" fill="#EDE937"/>
<path d="M151.762 195.243C135 172.917 131.22 61.2304 159.249 43.1028C166.624 40.2516 183.755 50.9269 200.416 65.9017C171.617 94.182 144.279 174.541 151.762 195.243Z" fill="#EDE937"/>
<path d="M200.416 65.9014C171.617 94.1817 144.279 174.541 151.762 195.242C151.762 195.242 151.763 195.244 151.765 195.246C152.445 196.151 153.15 196.908 153.871 197.508C164.65 200.566 232.096 166.324 240.744 123.111C240.315 108.774 220.714 84.1482 200.416 65.9014ZM223.263 127.452C220.177 127.452 217.677 124.934 217.677 121.831C217.677 118.727 220.177 116.209 223.263 116.209C226.349 116.209 228.853 118.727 228.853 121.831C228.853 124.934 226.353 127.452 223.263 127.452Z" fill="#BFD749"/>
<path d="M228.853 121.831C228.853 124.934 226.353 127.452 223.263 127.452C220.174 127.452 217.677 124.934 217.677 121.831C217.677 118.727 220.177 116.209 223.263 116.209C226.349 116.209 228.853 118.727 228.853 121.831Z" fill="#004155"/>
<path d="M66.3656 308.799L57.8456 286.519C57.2323 284.999 56.619 283.079 56.0056 280.759C55.7123 281.906 55.4056 282.973 55.0856 283.959C54.7923 284.946 54.499 285.826 54.2056 286.599L45.7256 308.799H66.3656ZM83.2056 330.199H76.6456C75.899 330.199 75.2856 330.013 74.8056 329.639C74.3256 329.266 73.979 328.786 73.7656 328.199L68.6856 314.879H43.3656L38.2856 328.199C38.099 328.706 37.7523 329.173 37.2456 329.599C36.739 329.999 36.1256 330.199 35.4056 330.199H28.8456L51.7256 272.759H60.3256L83.2056 330.199ZM98.9369 279.679V298.919H121.977V305.839H98.9369V330.199H90.3769V272.759H125.977V279.679H98.9369ZM144.171 279.679V298.919H167.211V305.839H144.171V330.199H135.611V272.759H171.211V279.679H144.171ZM206.756 308.799L198.236 286.519C197.623 284.999 197.01 283.079 196.396 280.759C196.103 281.906 195.796 282.973 195.476 283.959C195.183 284.946 194.89 285.826 194.596 286.599L186.116 308.799H206.756ZM223.596 330.199H217.036C216.29 330.199 215.676 330.013 215.196 329.639C214.716 329.266 214.37 328.786 214.156 328.199L209.076 314.879H183.756L178.676 328.199C178.49 328.706 178.143 329.173 177.636 329.599C177.13 329.999 176.516 330.199 175.796 330.199H169.236L192.116 272.759H200.716L223.596 330.199ZM263.648 323.039V330.199H230.768V272.759H239.288V323.039H263.648ZM322.059 301.479C322.059 305.773 321.366 309.679 319.979 313.199C318.619 316.719 316.686 319.746 314.179 322.279C311.673 324.786 308.673 326.733 305.179 328.119C301.686 329.506 297.806 330.199 293.539 330.199H271.939V272.759H293.539C297.806 272.759 301.686 273.453 305.179 274.839C308.673 276.226 311.673 278.186 314.179 280.719C316.686 283.226 318.619 286.253 319.979 289.799C321.366 293.319 322.059 297.213 322.059 301.479ZM313.339 301.479C313.339 298.066 312.873 295.013 311.939 292.319C311.006 289.599 309.673 287.306 307.939 285.439C306.233 283.546 304.153 282.106 301.699 281.119C299.273 280.133 296.553 279.639 293.539 279.639H280.499V323.319H293.539C296.553 323.319 299.273 322.826 301.699 321.839C304.153 320.853 306.233 319.426 307.939 317.559C309.673 315.666 311.006 313.373 311.939 310.679C312.873 307.986 313.339 304.919 313.339 301.479ZM362.519 282.119C362.252 282.573 361.972 282.906 361.679 283.119C361.385 283.333 361.012 283.439 360.559 283.439C360.079 283.439 359.532 283.226 358.919 282.799C358.305 282.346 357.532 281.853 356.599 281.319C355.692 280.759 354.599 280.266 353.319 279.839C352.039 279.386 350.505 279.159 348.719 279.159C347.039 279.159 345.559 279.386 344.279 279.839C343.025 280.266 341.972 280.866 341.119 281.639C340.265 282.386 339.612 283.279 339.159 284.319C338.732 285.333 338.519 286.439 338.519 287.639C338.519 289.186 338.905 290.466 339.679 291.479C340.479 292.493 341.519 293.359 342.799 294.079C344.079 294.799 345.532 295.426 347.159 295.959C348.785 296.493 350.452 297.053 352.159 297.639C353.865 298.199 355.532 298.853 357.159 299.599C358.785 300.346 360.239 301.293 361.519 302.439C362.799 303.559 363.825 304.946 364.599 306.599C365.399 308.226 365.799 310.226 365.799 312.599C365.799 315.133 365.359 317.506 364.479 319.719C363.625 321.933 362.372 323.866 360.719 325.519C359.065 327.173 357.025 328.479 354.599 329.439C352.199 330.373 349.465 330.839 346.399 330.839C344.559 330.839 342.772 330.653 341.039 330.279C339.305 329.933 337.665 329.439 336.119 328.799C334.572 328.133 333.119 327.346 331.759 326.439C330.425 325.506 329.225 324.466 328.159 323.319L330.599 319.239C330.839 318.919 331.119 318.653 331.439 318.439C331.785 318.226 332.172 318.119 332.599 318.119C333.159 318.119 333.799 318.413 334.519 318.999C335.265 319.586 336.172 320.239 337.239 320.959C338.332 321.653 339.625 322.293 341.119 322.879C342.639 323.466 344.479 323.759 346.639 323.759C348.399 323.759 349.972 323.533 351.359 323.079C352.745 322.599 353.905 321.933 354.839 321.079C355.799 320.199 356.532 319.146 357.039 317.919C357.545 316.693 357.799 315.333 357.799 313.839C357.799 312.159 357.412 310.786 356.639 309.719C355.865 308.653 354.839 307.759 353.559 307.039C352.279 306.319 350.825 305.706 349.199 305.199C347.572 304.693 345.905 304.173 344.199 303.639C342.492 303.079 340.825 302.439 339.199 301.719C337.572 300.999 336.119 300.066 334.839 298.919C333.559 297.746 332.532 296.293 331.759 294.559C330.985 292.799 330.599 290.639 330.599 288.079C330.599 286.026 330.999 284.039 331.799 282.119C332.599 280.199 333.759 278.506 335.279 277.039C336.825 275.546 338.719 274.359 340.959 273.479C343.199 272.573 345.759 272.119 348.639 272.119C351.865 272.119 354.825 272.639 357.519 273.679C360.239 274.693 362.599 276.159 364.599 278.079L362.519 282.119Z" fill="#004155"/>
<path d="M56.6533 377.199H52.7733V348.539H56.6533V377.199ZM87.2042 348.539V377.199H85.2642C84.9576 377.199 84.6976 377.146 84.4842 377.039C84.2842 376.933 84.0842 376.753 83.8842 376.499L67.3042 354.899C67.3309 355.233 67.3509 355.559 67.3642 355.879C67.3776 356.199 67.3842 356.499 67.3842 356.779V377.199H63.9842V348.539H65.9842C66.1576 348.539 66.3042 348.553 66.4242 348.579C66.5442 348.593 66.6509 348.626 66.7442 348.679C66.8376 348.719 66.9309 348.786 67.0242 348.879C67.1176 348.959 67.2176 349.066 67.3242 349.199L83.9042 370.779C83.8776 370.433 83.8509 370.099 83.8242 369.779C83.8109 369.446 83.8042 369.133 83.8042 368.839V348.539H87.2042ZM119.371 362.879C119.371 365.026 119.031 366.979 118.351 368.739C117.671 370.499 116.711 372.006 115.471 373.259C114.231 374.513 112.738 375.486 110.991 376.179C109.258 376.859 107.338 377.199 105.231 377.199H94.5311V348.539H105.231C107.338 348.539 109.258 348.886 110.991 349.579C112.738 350.259 114.231 351.233 115.471 352.499C116.711 353.753 117.671 355.259 118.351 357.019C119.031 358.779 119.371 360.733 119.371 362.879ZM115.391 362.879C115.391 361.119 115.151 359.546 114.671 358.159C114.191 356.773 113.511 355.599 112.631 354.639C111.751 353.679 110.684 352.946 109.431 352.439C108.178 351.933 106.778 351.679 105.231 351.679H98.4111V374.059H105.231C106.778 374.059 108.178 373.806 109.431 373.299C110.684 372.793 111.751 372.066 112.631 371.119C113.511 370.159 114.191 368.986 114.671 367.599C115.151 366.213 115.391 364.639 115.391 362.879ZM139.621 353.019C139.501 353.219 139.367 353.373 139.221 353.479C139.087 353.573 138.921 353.619 138.721 353.619C138.494 353.619 138.227 353.506 137.921 353.279C137.614 353.053 137.227 352.806 136.761 352.539C136.307 352.259 135.754 352.006 135.101 351.779C134.461 351.553 133.681 351.439 132.761 351.439C131.894 351.439 131.127 351.559 130.461 351.799C129.807 352.026 129.254 352.339 128.801 352.739C128.361 353.139 128.027 353.613 127.801 354.159C127.574 354.693 127.461 355.273 127.461 355.899C127.461 356.699 127.654 357.366 128.041 357.899C128.441 358.419 128.961 358.866 129.601 359.239C130.254 359.613 130.987 359.939 131.801 360.219C132.627 360.486 133.467 360.766 134.321 361.059C135.187 361.353 136.027 361.686 136.841 362.059C137.667 362.419 138.401 362.879 139.041 363.439C139.694 363.999 140.214 364.686 140.601 365.499C141.001 366.313 141.201 367.313 141.201 368.499C141.201 369.753 140.987 370.933 140.561 372.039C140.134 373.133 139.507 374.086 138.681 374.899C137.867 375.713 136.861 376.353 135.661 376.819C134.474 377.286 133.121 377.519 131.601 377.519C129.734 377.519 128.041 377.186 126.521 376.519C125.001 375.839 123.701 374.926 122.621 373.779L123.741 371.939C123.847 371.793 123.974 371.673 124.121 371.579C124.281 371.473 124.454 371.419 124.641 371.419C124.814 371.419 125.007 371.493 125.221 371.639C125.447 371.773 125.701 371.946 125.981 372.159C126.261 372.373 126.581 372.606 126.941 372.859C127.301 373.113 127.707 373.346 128.161 373.559C128.627 373.773 129.154 373.953 129.741 374.099C130.327 374.233 130.987 374.299 131.721 374.299C132.641 374.299 133.461 374.173 134.181 373.919C134.901 373.666 135.507 373.313 136.001 372.859C136.507 372.393 136.894 371.839 137.161 371.199C137.427 370.559 137.561 369.846 137.561 369.059C137.561 368.193 137.361 367.486 136.961 366.939C136.574 366.379 136.061 365.913 135.421 365.539C134.781 365.166 134.047 364.853 133.221 364.599C132.394 364.333 131.554 364.066 130.701 363.799C129.847 363.519 129.007 363.199 128.181 362.839C127.354 362.479 126.621 362.013 125.981 361.439C125.341 360.866 124.821 360.153 124.421 359.299C124.034 358.433 123.841 357.366 123.841 356.099C123.841 355.086 124.034 354.106 124.421 353.159C124.821 352.213 125.394 351.373 126.141 350.639C126.901 349.906 127.827 349.319 128.921 348.879C130.027 348.439 131.294 348.219 132.721 348.219C134.321 348.219 135.774 348.473 137.081 348.979C138.401 349.486 139.561 350.219 140.561 351.179L139.621 353.019ZM161.392 366.559L156.892 354.899C156.758 354.553 156.618 354.153 156.472 353.699C156.325 353.233 156.185 352.739 156.052 352.219C155.772 353.299 155.485 354.199 155.192 354.919L150.692 366.559H161.392ZM169.472 377.199H166.472C166.125 377.199 165.845 377.113 165.632 376.939C165.418 376.766 165.258 376.546 165.152 376.279L162.472 369.359H149.612L146.932 376.279C146.852 376.519 146.698 376.733 146.472 376.919C146.245 377.106 145.965 377.199 145.632 377.199H142.632L154.092 348.539H158.012L169.472 377.199ZM203.062 348.539V377.199H199.662V356.139C199.662 355.859 199.669 355.559 199.682 355.239C199.709 354.919 199.735 354.593 199.762 354.259L189.922 372.179C189.615 372.779 189.149 373.079 188.522 373.079H187.962C187.335 373.079 186.869 372.779 186.562 372.179L176.522 354.179C176.602 354.886 176.642 355.539 176.642 356.139V377.199H173.242V348.539H176.102C176.449 348.539 176.715 348.573 176.902 348.639C177.089 348.706 177.269 348.893 177.442 349.199L187.342 366.839C187.502 367.159 187.655 367.493 187.802 367.839C187.962 368.186 188.109 368.539 188.242 368.899C188.375 368.539 188.515 368.186 188.662 367.839C188.809 367.479 188.969 367.139 189.142 366.819L198.862 349.199C199.022 348.893 199.195 348.706 199.382 348.639C199.582 348.573 199.855 348.539 200.202 348.539H203.062ZM226.65 373.939V377.199H210.39V348.539H214.25V373.939H226.65ZM234.817 377.199H230.937V348.539H234.817V377.199ZM265.368 348.539V377.199H263.428C263.122 377.199 262.862 377.146 262.648 377.039C262.448 376.933 262.248 376.753 262.048 376.499L245.468 354.899C245.495 355.233 245.515 355.559 245.528 355.879C245.542 356.199 245.548 356.499 245.548 356.779V377.199H242.148V348.539H244.148C244.322 348.539 244.468 348.553 244.588 348.579C244.708 348.593 244.815 348.626 244.908 348.679C245.002 348.719 245.095 348.786 245.188 348.879C245.282 348.959 245.382 349.066 245.488 349.199L262.068 370.779C262.042 370.433 262.015 370.099 261.988 369.779C261.975 369.446 261.968 369.133 261.968 368.839V348.539H265.368ZM295.975 363.419V374.419C294.535 375.459 292.995 376.239 291.355 376.759C289.728 377.266 287.942 377.519 285.995 377.519C283.688 377.519 281.608 377.166 279.755 376.459C277.902 375.739 276.315 374.739 274.995 373.459C273.688 372.166 272.682 370.619 271.975 368.819C271.268 367.019 270.915 365.039 270.915 362.879C270.915 360.693 271.255 358.699 271.935 356.899C272.628 355.099 273.608 353.559 274.875 352.279C276.142 350.986 277.682 349.986 279.495 349.279C281.308 348.573 283.335 348.219 285.575 348.219C286.708 348.219 287.762 348.306 288.735 348.479C289.708 348.639 290.608 348.879 291.435 349.199C292.262 349.506 293.028 349.886 293.735 350.339C294.442 350.779 295.102 351.279 295.715 351.839L294.615 353.599C294.442 353.866 294.215 354.039 293.935 354.119C293.668 354.186 293.368 354.119 293.035 353.919C292.715 353.733 292.348 353.506 291.935 353.239C291.522 352.973 291.015 352.719 290.415 352.479C289.828 352.226 289.128 352.013 288.315 351.839C287.515 351.666 286.562 351.579 285.455 351.579C283.842 351.579 282.382 351.846 281.075 352.379C279.768 352.899 278.655 353.653 277.735 354.639C276.815 355.613 276.108 356.799 275.615 358.199C275.122 359.586 274.875 361.146 274.875 362.879C274.875 364.679 275.128 366.293 275.635 367.719C276.155 369.133 276.888 370.339 277.835 371.339C278.795 372.326 279.955 373.079 281.315 373.599C282.675 374.119 284.202 374.379 285.895 374.379C287.228 374.379 288.408 374.233 289.435 373.939C290.475 373.633 291.488 373.213 292.475 372.679V366.379H288.015C287.762 366.379 287.555 366.306 287.395 366.159C287.248 366.013 287.175 365.833 287.175 365.619V363.419H295.975ZM319.594 374.039L319.574 377.199H301.914V348.539H319.574V351.699H305.794V361.219H316.954V364.259H305.794V374.039H319.594ZM348.22 348.539V377.199H346.28C345.973 377.199 345.713 377.146 345.5 377.039C345.3 376.933 345.1 376.753 344.9 376.499L328.32 354.899C328.347 355.233 328.367 355.559 328.38 355.879C328.393 356.199 328.4 356.499 328.4 356.779V377.199H325V348.539H327C327.173 348.539 327.32 348.553 327.44 348.579C327.56 348.593 327.667 348.626 327.76 348.679C327.853 348.719 327.947 348.786 328.04 348.879C328.133 348.959 328.233 349.066 328.34 349.199L344.92 370.779C344.893 370.433 344.867 370.099 344.84 369.779C344.827 369.446 344.82 369.133 344.82 368.839V348.539H348.22Z" fill="#004155"/>
</svg>
