<svg width="107" height="108" viewBox="0 0 107 108" fill="none" xmlns="http://www.w3.org/2000/svg">
<path d="M53.0989 3.21153C59.8384 3.21153 66.3749 4.54163 72.5264 7.16438C78.4695 9.69881 83.8073 13.3265 88.3923 17.9484C92.9774 22.5703 96.5762 27.951 99.0904 33.9418C101.692 40.1427 103.012 46.7317 103.012 53.5254C103.012 60.3191 101.692 66.9081 99.0904 73.109C96.5762 79.0999 92.9774 84.4805 88.3923 89.1024C83.8073 93.7244 78.4695 97.352 72.5264 99.8865C66.3749 102.509 59.8384 103.839 53.0989 103.839C46.3593 103.839 39.8228 102.509 33.6713 99.8865C27.7282 97.352 22.3905 93.7244 17.8054 89.1024C13.2203 84.4805 9.62151 79.0999 7.10728 73.109C4.50544 66.9081 3.18593 60.3191 3.18593 53.5254C3.18593 46.7317 4.50544 40.1427 7.10728 33.9418C9.62151 27.951 13.2203 22.5703 17.8054 17.9484C22.3905 13.3265 27.7282 9.69881 33.6713 7.16438C39.8228 4.54163 46.3593 3.21153 53.0989 3.21153ZM53.0989 0C23.7737 0 0 23.9647 0 53.5254C0 83.0862 23.7737 107.051 53.0989 107.051C82.424 107.051 106.198 83.0862 106.198 53.5254C106.198 23.9647 82.424 0 53.0989 0Z" fill="#EDE937"/>
<path d="M79.7752 71.3867C68.9761 87.5264 35.7708 89.9628 31.9017 86.8758C31.7987 86.6791 31.7065 86.4669 31.6235 86.2361C31.9232 86.6358 32.2336 86.9703 32.5516 87.2352C37.3012 88.5858 67.0216 73.4622 70.8323 54.3764C70.6433 48.0444 62.0062 37.1679 53.0618 29.1089C55.4205 26.7871 57.8006 25.2598 60.1101 24.8447C67.8299 25.06 83.8579 60.6077 79.7752 71.3867Z" fill="#EDE937"/>
<path d="M31.6221 86.2343C24.2358 76.3739 22.5702 27.0454 34.9212 19.0391C38.171 17.7798 45.7202 22.4947 53.062 29.1086C40.3714 41.5991 28.3247 77.091 31.6221 86.2343Z" fill="#EDE937"/>
<path d="M53.0619 29.1084C40.3713 41.5989 28.3246 77.0908 31.6221 86.2341C31.6221 86.2341 31.6226 86.2346 31.6236 86.2356C31.9233 86.6353 32.2336 86.9698 32.5517 87.2347C37.3013 88.5853 67.0217 73.4617 70.8324 54.3759C70.6434 48.0439 62.0063 37.1674 53.0619 29.1084ZM63.1296 56.2935C61.7697 56.2935 60.668 55.1814 60.668 53.8106C60.668 52.4398 61.7697 51.3276 63.1296 51.3276C64.4894 51.3276 65.5927 52.4398 65.5927 53.8106C65.5927 55.1814 64.491 56.2935 63.1296 56.2935Z" fill="#BFD749"/>
<path d="M65.5927 53.8101C65.5927 55.1809 64.491 56.293 63.1296 56.293C61.7682 56.293 60.668 55.1809 60.668 53.8101C60.668 52.4393 61.7697 51.3271 63.1296 51.3271C64.4894 51.3271 65.5927 52.4393 65.5927 53.8101Z" fill="#004155"/>
</svg>
