<?xml version="1.0" encoding="UTF-8"?>
<svg id="Layer_1" data-name="Layer 1" xmlns="http://www.w3.org/2000/svg" viewBox="0 0 1024 1024">
  <defs>
    <style>
      .cls-1 {
        fill: #fff;
      }

      .cls-2 {
        fill: #006837;
      }
    </style>
  </defs>
  <path class="cls-2" d="M490.79,144.29c262.29-15.56,454.38,242.84,363.23,490.23-97.33,264.15-447.39,320.25-624.99,100.95C43.62,506.53,198.7,161.63,490.79,144.29ZM746.9,741.4c198-196.78,73.36-540.27-205.41-563.39-273.71-22.7-456.16,278.38-305.91,509.91,26.73,41.17,100.15,115.4,151.05,118.95,56.9,3.97,79.68-34.36,83.36-85.38,3.56-49.46-22.18-48.3-46.39-79.59-14.09-18.2-19.65-40.82-34.09-57.91-4.4-5.21-25.97-24.05-24.39-30.29,1.98-7.84,24.18-5.31,29.86-3.18,20.87,7.81,28.55,30.29,43.11,41.89,7.29,5.81,15.7,5.36,18.47-4.36,4.24-14.89-2.23-48.85-5.04-65.07-3.24-18.74-16.53-63.38-12.28-79.24,4.99-18.62,18.83-5.64,23.93,5.59,12.2,26.79,14.49,61.43,25.54,87.45,1,2.36,2.65,7.29,6.16,5.08.69-.43,1.09-4.16,1.18-5.32,2.23-30.76.22-63.32,1.91-94.08.51-9.26,3.26-42.75,18.09-38.01,7.12,2.27,9.99,19.56,10.82,26.18,4.11,32.57.52,69.55,3.09,102.91.65,8.38,5.62,18.78,10.1,6.02,3.87-11.05,5.66-26.51,8.62-38.38,3.62-14.49,10.53-48.44,18.49-59.51,10.77-14.99,19.96,2.68,19.92,14.83-.1,29.34-14.51,66.86-16.96,97.13-.79,9.75,2.46,9.22,7.7,2.7,11.09-13.83,29.19-56.45,43.77-62.22,7.69-3.05,12.35,3.06,12.4,10.37.1,13.19-14.78,34.05-20.86,46.16-15.2,30.31-17.9,50.82-26.88,82.12-11.19,39.07-30.64,52.08-25.14,97.62,5.53,45.66,21.85,73.62,71.39,76.61,36.66,2.21,89.27-40.63,114.39-65.59Z"/>
  <path class="cls-2" d="M785.87,439.15c.63,1.06-.19,2.51-.65,3.57-21.19,49-79.08,82.79-130.89,59.45-2.32-1.04-17.06-9.64-17.34-10.68-.54-2.02.97-1.39,1.98-1.98,20.05-11.58,44.55-17.99,66.28-25.76l10.75-4.74c-29.81,1.65-57.48,13.55-86,20.98,6.61-23.07,23.31-44.12,45.33-54.16,36.56-16.68,77.73-7.06,110.54,13.32Z"/>
  <path class="cls-1" d="M541.49,178.01c278.77,23.12,403.41,366.61,205.41,563.39-25.12,24.96-77.73,67.8-114.39,65.59-49.54-2.99-65.86-30.95-71.39-76.61-5.5-45.54,13.95-58.55,25.14-97.62,8.98-31.3,11.68-51.81,26.88-82.12,6.08-12.11,20.96-32.97,20.86-46.16-.05-7.31-4.71-13.42-12.4-10.37-14.58,5.77-32.68,48.39-43.77,62.22-5.24,6.52-8.49,7.05-7.7-2.7,2.45-30.27,16.86-67.79,16.96-97.13.04-12.15-9.15-29.82-19.92-14.83-7.96,11.07-14.87,45.02-18.49,59.51-2.96,11.87-4.75,27.33-8.62,38.38-4.48,12.76-9.45,2.36-10.1-6.02-2.57-33.36,1.02-70.34-3.09-102.91-.83-6.62-3.7-23.91-10.82-26.18-14.83-4.74-17.58,28.75-18.09,38.01-1.69,30.76.32,63.32-1.91,94.08-.09,1.16-.49,4.89-1.18,5.32-3.51,2.21-5.16-2.72-6.16-5.08-11.05-26.02-13.34-60.66-25.54-87.45-5.1-11.23-18.94-24.21-23.93-5.59-4.25,15.86,9.04,60.5,12.28,79.24,2.81,16.22,9.28,50.18,5.04,65.07-2.77,9.72-11.18,10.17-18.47,4.36-14.56-11.6-22.24-34.08-43.11-41.89-5.68-2.13-27.88-4.66-29.86,3.18-1.58,6.24,19.99,25.08,24.39,30.29,14.44,17.09,20,39.71,34.09,57.91,24.21,31.29,49.95,30.13,46.39,79.59-3.68,51.02-26.46,89.35-83.36,85.38-50.9-3.55-124.32-77.78-151.05-118.95-150.25-231.53,32.2-532.61,305.91-509.91ZM785.22,442.72c.46-1.06,1.28-2.51.65-3.57-32.81-20.38-73.98-30-110.54-13.32-22.02,10.04-38.72,31.09-45.33,54.16,28.52-7.43,56.19-19.33,86-20.98l-10.75,4.74c-21.73,7.77-46.23,14.18-66.28,25.76-1.01.59-2.52-.04-1.98,1.98.28,1.04,15.02,9.64,17.34,10.68,51.81,23.34,109.7-10.45,130.89-59.45ZM692.86,321.36c1.41-11.09.99-22.26,2.14-33.36-40.51,1.23-75.52,14.4-102.03,45.47-18.45,21.63-22.22,50.17-16.96,77.53l61.49-65c.54,2.94-3.01,6.86-4.69,9.31-5.3,7.77-48.25,59.27-45.8,63.69,7.08-.05,14.29-.16,21.36-1.13,47.73-6.56,78.7-51.13,84.49-96.51ZM517.01,381c47.89-30.45,51.75-86.49,24.8-133.31-2.98-5.16-25.25-37.3-29.17-36.62-38.69,35.01-64.84,90.64-35.45,140.24,6.49,10.95,16.18,22.13,27.8,27.69,3.19-26.39,2.6-52.99,5.02-79.49.33-3.61.56-7.47.98-11.03.18-1.5.81-3.05,2-1.47l4.02,93.99ZM446.99,410c4.43-22.83,2.58-46.19-8.82-66.67-20.98-37.71-66.93-54.23-108.17-55.33-2,42.74,11.14,90.51,48.27,115.23,17.98,11.96,38.22,16.02,59.73,15.76l-49.5-71.99c22.32,18.31,39.05,41.93,58.49,63ZM388.99,491.49l-78.99-32.48c29.39,2.4,57.15,13.09,84.99,21.99-5.59-23.75-24.6-46.57-47.02-56.47-35.85-15.83-76.95-3.89-109.05,15.06,23.46,58.75,95.17,93.52,150.07,51.9Z"/>
  <path class="cls-2" d="M695,288c-1.15,11.1-.73,22.27-2.14,33.36-5.79,45.38-36.76,89.95-84.49,96.51-7.07.97-14.28,1.08-21.36,1.13-2.45-4.42,40.5-55.92,45.8-63.69,1.68-2.45,5.23-6.37,4.69-9.31l-61.49,65c-5.26-27.36-1.49-55.9,16.96-77.53,26.51-31.07,61.52-44.24,102.03-45.47Z"/>
  <path class="cls-2" d="M541.81,247.69c26.95,46.82,23.09,102.86-24.8,133.31l-4.02-93.99c-1.19-1.58-1.82-.03-2,1.47-.42,3.56-.65,7.42-.98,11.03-2.42,26.5-1.83,53.1-5.02,79.49-11.62-5.56-21.31-16.74-27.8-27.69-29.39-49.6-3.24-105.23,35.45-140.24,3.92-.68,26.19,31.46,29.17,36.62Z"/>
  <path class="cls-2" d="M438.17,343.33c11.4,20.48,13.25,43.84,8.82,66.67-19.44-21.07-36.17-44.69-58.49-63l49.5,71.99c-21.51.26-41.75-3.8-59.73-15.76-37.13-24.72-50.27-72.49-48.27-115.23,41.24,1.1,87.19,17.62,108.17,55.33Z"/>
  <path class="cls-2" d="M310,459.01l78.99,32.48c-54.9,41.62-126.61,6.85-150.07-51.9,32.1-18.95,73.2-30.89,109.05-15.06,22.42,9.9,41.43,32.72,47.02,56.47-27.84-8.9-55.6-19.59-84.99-21.99Z"/>
</svg>