<?xml version="1.0" encoding="UTF-8"?>
<svg id="Layer_1" data-name="Layer 1" xmlns="http://www.w3.org/2000/svg" viewBox="0 0 800 800">
  <defs>
    <style>
      .cls-1 {
        fill: #fff;
      }

      .cls-2 {
        fill: #006837;
      }
    </style>
  </defs>
  <path class="cls-2" d="M766.02,349.14c40.43,306.92-284.04,523.78-552.53,369.53C2.98,597.73-32.82,302.09,142.51,133.85c219-210.14,583.92-85.2,623.51,215.29ZM735.99,450.83C774.06,196.72,531.52-7.16,287.64,78.48,36.94,166.52-21.41,497.4,186.69,664.47c21.98,17.65,74.01,51.17,101.97,51.11,51.7-.1,74.93-53.8,71.54-98.62-1.99-26.31-24.78-33.22-40.55-50.45-10.76-11.74-15.86-26.71-25.52-38.48-5.14-6.27-25.89-20.77-25.9-27.04,0-8.24,15.52-9.94,21.47-9.52,19.42,1.37,26.44,16.82,39.45,27.54,7.73,6.38,15.15,11.2,17.75-2.27,6.85-35.33-14.09-85.69-15.73-121.75-.35-7.75.81-20.72,11.94-16.94,7.48,2.53,14.18,24.92,16.55,32.45,4.86,15.48,9.74,47.66,17.29,59.71,3.82,6.09,7.57,2.59,8.23-3.19,3.83-33.13-3.37-70.57,2.1-104.9.84-5.26,3.7-17.04,9.59-18.4,10.33-2.4,13.63,7.12,15.15,15.42,6.07,33.34-.65,73.1,2.1,106.9.91,11.19,5.89,8.64,9.52.44,10.56-23.82,10.16-58.77,24.1-81.9,9.37-15.54,19.9-7.71,19.46,8.47-.71,26.46-11.94,54.8-13.91,81.08-.64,8.45-2.1,20.53,8.89,11.89,13.11-10.29,33.9-44.36,50.84-44.96,1.7-.06,5.75.65,6.9,1.69,4.45,4.05.71,11.24-1.59,15.42-11.27,20.48-29.72,38.37-40.69,60.31-8.31,16.61-9.34,29.73-14.22,46.78-4.87,17.06-16.69,35.31-18.24,52.76-5.47,61.45,38.88,114.88,102.34,87.34,100.67-43.7,172.38-147.09,188.47-254.53Z"/>
  <path class="cls-1" d="M287.64,78.48c243.88-85.64,486.42,118.24,448.35,372.35-16.09,107.44-87.8,210.83-188.47,254.53-63.46,27.54-107.81-25.89-102.34-87.34,1.55-17.45,13.37-35.7,18.24-52.76,4.88-17.05,5.91-30.17,14.22-46.78,10.97-21.94,29.42-39.83,40.69-60.31,2.3-4.18,6.04-11.37,1.59-15.42-1.15-1.04-5.2-1.75-6.9-1.69-16.94.6-37.73,34.67-50.84,44.96-10.99,8.64-9.53-3.44-8.89-11.89,1.97-26.28,13.2-54.62,13.91-81.08.44-16.18-10.09-24.01-19.46-8.47-13.94,23.13-13.54,58.08-24.1,81.9-3.63,8.2-8.61,10.75-9.52-.44-2.75-33.8,3.97-73.56-2.1-106.9-1.52-8.3-4.82-17.82-15.15-15.42-5.89,1.36-8.75,13.14-9.59,18.4-5.47,34.33,1.73,71.77-2.1,104.9-.66,5.78-4.41,9.28-8.23,3.19-7.55-12.05-12.43-44.23-17.29-59.71-2.37-7.53-9.07-29.92-16.55-32.45-11.13-3.78-12.29,9.19-11.94,16.94,1.64,36.06,22.58,86.42,15.73,121.75-2.6,13.47-10.02,8.65-17.75,2.27-13.01-10.72-20.03-26.17-39.45-27.54-5.95-.42-21.48,1.28-21.47,9.52.01,6.27,20.76,20.77,25.9,27.04,9.66,11.77,14.76,26.74,25.52,38.48,15.77,17.23,38.56,24.14,40.55,50.45,3.39,44.82-19.84,98.52-71.54,98.62-27.96.06-79.99-33.46-101.97-51.11C-21.41,497.4,36.94,166.52,287.64,78.48ZM707.06,508.01c-9.6-14.05-22.18-28.84-40.42-30.49-18.7-1.7-35.78,4.12-47.48,18.97,15.54.39,34.11-.47,49.22,3.3,1.01.25,3.01.28,2.77,1.7l-51.98,1.02c-.46,1.73.71,1.99,1.48,3,20.61,26.87,63.52,25.8,86.41,2.5ZM690.14,275.98l.07-16.01c-37.06-2.61-70.05,29.69-62.04,67.52l20.96-24.52,15.53-14.47.49,1.49-30.99,42.5c33.33.51,52.76-25.54,55.98-56.51ZM719.15,344.55c-33.8-18.54-88.92-6.07-93.98,36.95,16.84-6.59,33.05-15.71,50.99-18.99l-47.98,25.49c35.25,21.58,80.25-7.6,90.97-43.45ZM683.16,432.49l-56,6.02c-2.38,2.03,13.16,12.56,15.02,13.47,27.57,13.57,64.28,5.44,81.91-19.84-19.85-24.07-58.55-36.94-85.26-16.47-1.99,1.53-15.77,14.69-13.66,16.83,15.69-2.7,31.65-1.87,47.53-2.04l10.46,2.03ZM644.65,224.49c5.5-16,3.51-31.99,3.51-31.99-24.52-.43-49.85,7.28-65.42,27.08-9.66,12.3-15.74,32.19-11.72,47.57.36,1.38-.64,2.78,1.63,2.34,14.04-16.24,27.32-33.45,45-46l-38.5,48.5c30.38,3.72,60.01-31.49,65.5-47.5ZM608.67,417.51c2.17-2.61,12.51-17.58,10.44-19.96-18.28-7.55-36.16-11.8-55.3-3.9-13.55,5.58-25.15,19.89-25.64,34.85,14.91-5.21,29.28-14.54,44.94-17.56,1.03-.2,3.28-1.31,3.04.55-14.32,6.78-30.42,14.2-43.7,22.77-.97.63-1.79-.11-1.29,2.22,23.68,10.53,51.66.18,67.51-18.97ZM544.16,376.49c44.2,3.07,74.02-41.86,64.89-82.88-41.2.48-78.07,29.44-73.88,73.38.17,1.72.99,6.82,2.5,7.51,7.41-9.42,14.84-19.19,22.98-28.01,2.23-2.42,15.55-16.32,17.02-16.98.53-.24,1.69-.2,1.48.48l-34.99,46.5ZM593.15,543.49l-59.99-3.98c18.03,38.18,69.75,37.08,99.91,14.33-13.55-38.64-63.13-55.15-94.38-25.31-.78.74-4.69,3.97-3.52,4.96,17.4.55,34.95,3.21,51.79,7.71,1.68.45,5.63.62,6.19,2.29ZM588.68,472.51c1.11-.08,3.72-.74,3.47.98l-47.97,15.51c28.88,20.24,66.58,5.68,82.9-22.9-21.2-17.32-50.47-18.97-71.93-1.11-2.62,2.17-14.22,14.51-11.98,17.51,14.86-3.51,30.2-8.82,45.51-9.99ZM590.16,161v-19.5c-38.65-.95-80.42,24.12-80.08,66.52.04,4.36,1,13.37,4.07,16.48.44-5.78,40.73-51.37,43-49l-35.99,49.99c30.33,1.73,56.47-18.65,65.28-47.21,1.24-4.01,3.72-13.5,3.72-17.28ZM554.06,264.11l-2.91-19.62c-20.54,3.24-43.48,12.12-55.4,30.1-8.9,13.44-13.25,34.31-5.09,48.91l25.47-33.53,12.04-10.96-31,46.48c9.62.38,19.39-3.07,27.66-7.82,19.86-11.41,28.19-31.28,29.23-53.56ZM529.17,516.01c1.66-1.41,8.43-8.31,6.93-10.45-17.46-8.2-44.94,1.22-46.94,21.94,13.47.78,29.5-2.59,40.01-11.49ZM488.16,439.49c26.14-.69,42.95-22.64,40-47.99-25.32-1.33-52.2,17.09-45.99,45l19.5-18.99c1.68,1.05-.45,2.18-1.01,2.99-1.53,2.19-14.16,17.48-12.5,18.99ZM483.16,389.49c24.58.19,37.35-25.99,33.06-47.57-17.45-.64-36.57,11.41-39.95,29.18-.67,3.48-1.12,15.7,2.39,17.4l18.49-24-13.99,24.99ZM464.16,195.49c41.3-8.16,56.29-56.3,41.05-92.57-37.59,9.02-67.03,48.11-50.8,86.84.4.97,1.91,6.4,3.73,4.74,6.5-17.05,14.48-34.92,26.01-49l-19.99,49.99ZM451.16,293.49c37.02-10.49,48.41-51.59,31.37-83.92-36.61,7.26-60.92,49.03-37.87,81.91l13.31-34.67,6.18-10.3-12.99,46.98ZM434.16,369.49c27.68-4.04,36.35-36.11,30-60-27.62,3.3-49.38,31.49-34.5,57.99l14-23.98-9.5,25.99ZM419.13,185.97c28.89-34.65,12.08-85.85-19.33-112.4-28.52,25.65-45.19,69.63-24.45,105.24,4.33,7.42,11.91,16.06,19.8,19.68-.05-17.47.46-35.06,2.02-52.48.5-5.65,1.09-13.37,2.26-18.75.21-.97.35-3,1.72-2.75l2.02,73.99c1.81,2.06,14.57-10.86,15.96-12.53ZM404.17,321.5c29.02-24.67,28.67-63.3,7.8-93.31-1.47-2.12-10.71-13.87-12.18-13.62-29.88,28.49-38.34,78.56-3.64,106.93l2.02-41.49,2.98-18.51,3.02,60ZM374.15,355.99c2.56-25.21-14.37-42.07-37.98-46.49-6.43,23.68,1.33,56.11,28.99,59.99l-9.5-26.99,12.51,25c2.79,2.75,5.84-10.19,5.98-11.51ZM356.15,291.5c16.59-27.4,6.49-59.19-20.3-75.19-2.92-1.75-15.36-7.53-18.02-6.71-3.17.99-7.39,21.36-7.71,25.36-2.19,27.99,12.05,49.06,38.03,58.54l-11.49-46,19.49,44ZM342.66,195.48c22.42-38.56-9.4-84.96-49.49-92.99-13.37,36.74,1.72,81.31,40.98,93.01l-17.98-50c12.55,14.51,17.32,33.54,26.49,49.98ZM321.42,386.28c8.48-25.74-15.86-44.16-39.26-44.78v17.5c0,13.82,17.78,30.39,31.49,30.53,1.34.02,1.95.16,1.48-1.49-1.63-5.73-9.78-13.92-10.96-20.54,5.27,1.74,13.17,19.83,15.5,20.99,1.84.92,1.5-1.43,1.75-2.21ZM317.15,440.5c9.1-30.13-18.56-47.73-44.98-50-4.37,24.83,10.98,53.89,38.98,51.99.95-.83-11.57-19.55-12.79-21.69-.49-.88-2.18-2.53-.7-3.3l19.49,23ZM310.15,323.5c13.19-41.45-21.6-76.81-61.88-77.88-9.92,39.52,12.65,78.55,54.89,80.87l-29.99-45.5,1.48-.48,35.5,42.99ZM261.16,452.51c7.96,17.57,27.39,25.91,46,21.98-4.8-18.8-28.32-28.12-46-21.98ZM287.16,223.88c7.8-30.11-5.27-57.33-31.98-71.9-14.19-7.74-28.98-10.15-45.02-10.48v21.5c0,3.36,2.78,13.34,3.97,17.03,8.52,26.52,35.1,48.95,64.03,44.97l-35.99-49.5c2.26-2.37,42.11,43.67,43.01,48.99l1.98-.61ZM266.16,539.51l-58,3.98c-.3-.21.51-1.23.99-1.5,3.62-2.04,22.52-5.33,27.8-6.2,9.33-1.53,18.87-1.88,28.21-3.3-30.35-37.02-83.36-19.04-99.76,21.53,29.4,22.66,83.36,23.55,100.76-14.51ZM262.15,374.5c11.66-45.79-29.24-82.16-72.99-81-.74,11.67-.83,22.95,2.07,34.43,7.17,28.28,33.61,51.77,63.93,48.56l-33.99-44.5,1.48-1.48,39.5,43.99ZM258.16,434.51l-44-24c16.74,3.24,31.19,12.25,46.99,17.99-5.36-37.87-51.57-48.55-80.89-29.52,8.19,18.01,20.1,32.24,39.37,38.55,11.75,3.86,28.58,5.71,38.53-3.02ZM209.16,472.51l47,9.98c-15.29-33.23-54.97-38.58-83.06-17.43,14.08,26.82,46.78,41.7,75.44,28.32.93-.43,7.12-3.38,5.62-4.87l-45-16ZM228.15,269.5c.5-.46,2.11-11.75,2.1-13.5-.17-27.2-18.96-50.58-44.31-58.78-6.84-2.22-26.82-6.26-33.16-4.6-2.48.65-.62,2.15-.62,2.38.04,5,0,10,0,15,0,12.89,11.27,35.42,20.46,44.54,5.97,5.92,25.98,17.96,34.04,17.96h14.5l-38-48.5c1.07-1.69,2.2.41,2.99,1.01,16.2,12.41,26.47,28.4,39.73,43.21.42.47.65,2.75,2.27,1.28ZM181.16,502.51l-53.99-2c17.06-3.92,34.53-4.42,51.99-4.02-11.97-15.35-29.16-21.13-48.39-18.88-16.31,1.9-30,16.58-37.5,30.25,24.19,24.32,68.17,24.53,87.89-5.35ZM173.16,438.51l-56-7c18.85-1.7,38.14-1.49,57-.02-21.95-38.46-74.94-30.49-98.96,1.51,24.15,28.86,72.52,36.52,97.96,5.51ZM172.14,388l-49.98-26.49c18.62,3.9,35.62,12.67,52.99,19.99-5.99-43.18-60.61-55.42-94.97-36.95,10.59,37.56,55.84,64.24,91.96,43.45ZM171.67,328.49c9.91-38.06-25.54-71.31-62.51-68.99v18.5c0,5.4,5.02,19.18,7.62,24.38,9.84,19.62,27.28,30.26,49.38,30.11l-28.99-41.99c14.16,9.72,23.71,24.82,34.5,37.99Z"/>
  <path class="cls-2" d="M666.64,477.52c18.24,1.65,30.82,16.44,40.42,30.49-22.89,23.3-65.8,24.37-86.41-2.5-.77-1.01-1.94-1.27-1.48-3l51.98-1.02c.24-1.42-1.76-1.45-2.77-1.7-15.11-3.77-33.68-2.91-49.22-3.3,11.7-14.85,28.78-20.67,47.48-18.97Z"/>
  <path class="cls-2" d="M690.21,259.97l-.07,16.01c-3.22,30.97-22.65,57.02-55.98,56.51l30.99-42.5-.49-1.49-15.53,14.47-20.96,24.52c-8.01-37.83,24.98-70.13,62.04-67.52Z"/>
  <path class="cls-2" d="M625.17,381.5c5.06-43.02,60.18-55.49,93.98-36.95-10.72,35.85-55.72,65.03-90.97,43.45l47.98-25.49c-17.94,3.28-34.15,12.4-50.99,18.99Z"/>
  <path class="cls-2" d="M627.16,438.51l56-6.02-10.46-2.03c-15.88.17-31.84-.66-47.53,2.04-2.11-2.14,11.67-15.3,13.66-16.83,26.71-20.47,65.41-7.6,85.26,16.47-17.63,25.28-54.34,33.41-81.91,19.84-1.86-.91-17.4-11.44-15.02-13.47Z"/>
  <path class="cls-2" d="M648.16,192.5s1.99,15.99-3.51,31.99c-5.49,16.01-35.12,51.22-65.5,47.5l38.5-48.5c-17.68,12.55-30.96,29.76-45,46-2.27.44-1.27-.96-1.63-2.34-4.02-15.38,2.06-35.27,11.72-47.57,15.57-19.8,40.9-27.51,65.42-27.08Z"/>
  <path class="cls-2" d="M619.11,397.55c2.07,2.38-8.27,17.35-10.44,19.96-15.85,19.15-43.83,29.5-67.51,18.97-.5-2.33.32-1.59,1.29-2.22,13.28-8.57,29.38-15.99,43.7-22.77.24-1.86-2.01-.75-3.04-.55-15.66,3.02-30.03,12.35-44.94,17.56.49-14.96,12.09-29.27,25.64-34.85,19.14-7.9,37.02-3.65,55.3,3.9Z"/>
  <path class="cls-2" d="M609.05,293.61c9.13,41.02-20.69,85.95-64.89,82.88l34.99-46.5c.21-.68-.95-.72-1.48-.48-1.47.66-14.79,14.56-17.02,16.98-8.14,8.82-15.57,18.59-22.98,28.01-1.51-.69-2.33-5.79-2.5-7.51-4.19-43.94,32.68-72.9,73.88-73.38Z"/>
  <path class="cls-2" d="M533.16,539.51l59.99,3.98c-.56-1.67-4.51-1.84-6.19-2.29-16.84-4.5-34.39-7.16-51.79-7.71-1.17-.99,2.74-4.22,3.52-4.96,31.25-29.84,80.83-13.33,94.38,25.31-30.16,22.75-81.88,23.85-99.91-14.33Z"/>
  <path class="cls-2" d="M592.15,473.49c.25-1.72-2.36-1.06-3.47-.98-15.31,1.17-30.65,6.48-45.51,9.99-2.24-3,9.36-15.34,11.98-17.51,21.46-17.86,50.73-16.21,71.93,1.11-16.32,28.58-54.02,43.14-82.9,22.9l47.97-15.51Z"/>
  <path class="cls-2" d="M590.16,141.5v19.5c0,3.78-2.48,13.27-3.72,17.28-8.81,28.56-34.95,48.94-65.28,47.21l35.99-49.99c-2.27-2.37-42.56,43.22-43,49-3.07-3.11-4.03-12.12-4.07-16.48-.34-42.4,41.43-67.47,80.08-66.52Z"/>
  <path class="cls-2" d="M551.15,244.49l2.91,19.62c-1.04,22.28-9.37,42.15-29.23,53.56-8.27,4.75-18.04,8.2-27.66,7.82l31-46.48-12.04,10.96-25.47,33.53c-8.16-14.6-3.81-35.47,5.09-48.91,11.92-17.98,34.86-26.86,55.4-30.1Z"/>
  <path class="cls-2" d="M536.1,505.56c1.5,2.14-5.27,9.04-6.93,10.45-10.51,8.9-26.54,12.27-40.01,11.49,2-20.72,29.48-30.14,46.94-21.94Z"/>
  <path class="cls-2" d="M528.16,391.5c2.95,25.35-13.86,47.3-40,47.99-1.66-1.51,10.97-16.8,12.5-18.99.56-.81,2.69-1.94,1.01-2.99l-19.5,18.99c-6.21-27.91,20.67-46.33,45.99-45Z"/>
  <path class="cls-2" d="M516.22,341.92c4.29,21.58-8.48,47.76-33.06,47.57l13.99-24.99-18.49,24c-3.51-1.7-3.06-13.92-2.39-17.4,3.38-17.77,22.5-29.82,39.95-29.18Z"/>
  <path class="cls-2" d="M505.21,102.92c15.24,36.27.25,84.41-41.05,92.57l19.99-49.99c-11.53,14.08-19.51,31.95-26.01,49-1.82,1.66-3.33-3.77-3.73-4.74-16.23-38.73,13.21-77.82,50.8-86.84Z"/>
  <path class="cls-2" d="M482.53,209.57c17.04,32.33,5.65,73.43-31.37,83.92l12.99-46.98-6.18,10.3-13.31,34.67c-23.05-32.88,1.26-74.65,37.87-81.91Z"/>
  <path class="cls-2" d="M464.16,309.49c6.35,23.89-2.32,55.96-30,60l9.5-25.99-14,23.98c-14.88-26.5,6.88-54.69,34.5-57.99Z"/>
  <path class="cls-2" d="M399.8,73.57c31.41,26.55,48.22,77.75,19.33,112.4-1.39,1.67-14.15,14.59-15.96,12.53l-2.02-73.99c-1.37-.25-1.51,1.78-1.72,2.75-1.17,5.38-1.76,13.1-2.26,18.75-1.56,17.42-2.07,35.01-2.02,52.48-7.89-3.62-15.47-12.26-19.8-19.68-20.74-35.61-4.07-79.59,24.45-105.24Z"/>
  <path class="cls-2" d="M411.97,228.19c20.87,30.01,21.22,68.64-7.8,93.31l-3.02-60-2.98,18.51-2.02,41.49c-34.7-28.37-26.24-78.44,3.64-106.93,1.47-.25,10.71,11.5,12.18,13.62Z"/>
  <path class="cls-2" d="M336.17,309.5c23.61,4.42,40.54,21.28,37.98,46.49-.14,1.32-3.19,14.26-5.98,11.51l-12.51-25,9.5,26.99c-27.66-3.88-35.42-36.31-28.99-59.99Z"/>
  <path class="cls-2" d="M335.85,216.31c26.79,16,36.89,47.79,20.3,75.19l-19.49-44,11.49,46c-25.98-9.48-40.22-30.55-38.03-58.54.32-4,4.54-24.37,7.71-25.36,2.66-.82,15.1,4.96,18.02,6.71Z"/>
  <path class="cls-2" d="M293.17,102.49c40.09,8.03,71.91,54.43,49.49,92.99-9.17-16.44-13.94-35.47-26.49-49.98l17.98,50c-39.26-11.7-54.35-56.27-40.98-93.01Z"/>
  <path class="cls-2" d="M282.16,341.5c23.4.62,47.74,19.04,39.26,44.78-.25.78.09,3.13-1.75,2.21-2.33-1.16-10.23-19.25-15.5-20.99,1.18,6.62,9.33,14.81,10.96,20.54.47,1.65-.14,1.51-1.48,1.49-13.71-.14-31.49-16.71-31.49-30.53v-17.5Z"/>
  <path class="cls-2" d="M272.17,390.5c26.42,2.27,54.08,19.87,44.98,50l-19.49-23c-1.48.77.21,2.42.7,3.3,1.22,2.14,13.74,20.86,12.79,21.69-28,1.9-43.35-27.16-38.98-51.99Z"/>
  <path class="cls-2" d="M248.27,245.62c40.28,1.07,75.07,36.43,61.88,77.88l-35.5-42.99-1.48.48,29.99,45.5c-42.24-2.32-64.81-41.35-54.89-80.87Z"/>
  <path class="cls-2" d="M307.16,474.49c-18.61,3.93-38.04-4.41-46-21.98,17.68-6.14,41.2,3.18,46,21.98Z"/>
  <path class="cls-2" d="M255.18,151.98c26.71,14.57,39.78,41.79,31.98,71.9l-1.98.61c-.9-5.32-40.75-51.36-43.01-48.99l35.99,49.5c-28.93,3.98-55.51-18.45-64.03-44.97-1.19-3.69-3.97-13.67-3.97-17.03v-21.5c16.04.33,30.83,2.74,45.02,10.48Z"/>
  <path class="cls-2" d="M208.16,543.49l58-3.98c-17.4,38.06-71.36,37.17-100.76,14.51,16.4-40.57,69.41-58.55,99.76-21.53-9.34,1.42-18.88,1.77-28.21,3.3-5.28.87-24.18,4.16-27.8,6.2-.48.27-1.29,1.29-.99,1.5Z"/>
  <path class="cls-2" d="M189.16,293.5c43.75-1.16,84.65,35.21,72.99,81l-39.5-43.99-1.48,1.48,33.99,44.5c-30.32,3.21-56.76-20.28-63.93-48.56-2.9-11.48-2.81-22.76-2.07-34.43Z"/>
  <path class="cls-2" d="M214.16,410.51l44,24c-9.95,8.73-26.78,6.88-38.53,3.02-19.27-6.31-31.18-20.54-39.37-38.55,29.32-19.03,75.53-8.35,80.89,29.52-15.8-5.74-30.25-14.75-46.99-17.99Z"/>
  <path class="cls-2" d="M256.16,482.49l-47-9.98,45,16c1.5,1.49-4.69,4.44-5.62,4.87-28.66,13.38-61.36-1.5-75.44-28.32,28.09-21.15,67.77-15.8,83.06,17.43Z"/>
  <path class="cls-2" d="M230.25,256c.01,1.75-1.6,13.04-2.1,13.5-1.62,1.47-1.85-.81-2.27-1.28-13.26-14.81-23.53-30.8-39.73-43.21-.79-.6-1.92-2.7-2.99-1.01l38,48.5h-14.5c-8.06,0-28.07-12.04-34.04-17.96-9.19-9.12-20.46-31.65-20.46-44.54,0-5,.04-10,0-15,0-.23-1.86-1.73.62-2.38,6.34-1.66,26.32,2.38,33.16,4.6,25.35,8.2,44.14,31.58,44.31,58.78Z"/>
  <path class="cls-2" d="M127.17,500.51l53.99,2c-19.72,29.88-63.7,29.67-87.89,5.35,7.5-13.67,21.19-28.35,37.5-30.25,19.23-2.25,36.42,3.53,48.39,18.88-17.46-.4-34.93.1-51.99,4.02Z"/>
  <path class="cls-2" d="M117.16,431.51l56,7c-25.44,31.01-73.81,23.35-97.96-5.51,24.02-32,77.01-39.97,98.96-1.51-18.86-1.47-38.15-1.68-57,.02Z"/>
  <path class="cls-2" d="M122.16,361.51l49.98,26.49c-36.12,20.79-81.37-5.89-91.96-43.45,34.36-18.47,88.98-6.23,94.97,36.95-17.37-7.32-34.37-16.09-52.99-19.99Z"/>
  <path class="cls-2" d="M109.16,259.5c36.97-2.32,72.42,30.93,62.51,68.99-10.79-13.17-20.34-28.27-34.5-37.99l28.99,41.99c-22.1.15-39.54-10.49-49.38-30.11-2.6-5.2-7.62-18.98-7.62-24.38v-18.5Z"/>
</svg>